<svg width="50" height="50" viewBox="0 0 50 50" fill="none" xmlns="http://www.w3.org/2000/svg">
<path fill-rule="evenodd" clip-rule="evenodd" d="M42.1927 22.2677C41.9671 21.3305 42.5439 20.3886 43.4787 20.163C44.4136 19.9351 45.3578 20.5119 45.5834 21.4491C46.0043 23.1932 46.2276 25.0142 46.2276 26.8862C46.2276 39.642 35.8718 50 23.1138 50C10.3581 50 0 39.642 0 26.8862C0 14.1282 10.3581 3.77246 23.1138 3.77246C24.9859 3.77246 26.8068 3.99571 28.5509 4.41664C29.4882 4.64222 30.0649 5.5864 29.837 6.52128C29.6114 7.45615 28.6696 8.03289 27.7323 7.80731C26.251 7.44918 24.7045 7.26081 23.1138 7.26081C12.2813 7.26081 3.48835 16.0538 3.48835 26.8862C3.48835 37.7187 12.2813 46.5117 23.1138 46.5117C33.9463 46.5117 42.7392 37.7187 42.7392 26.8862C42.7392 25.2956 42.5508 23.7491 42.1927 22.2677Z" fill="black"/>
<path fill-rule="evenodd" clip-rule="evenodd" d="M31.4277 26.8862C31.4277 25.9234 32.2091 25.142 33.1719 25.142C34.1323 25.142 34.916 25.9234 34.916 26.8862C34.916 33.3978 29.6277 38.6861 23.1138 38.6861C16.6022 38.6861 11.3139 33.3978 11.3139 26.8862C11.3139 20.3723 16.6022 15.084 23.1138 15.084C24.0766 15.084 24.858 15.8677 24.858 16.8282C24.858 17.7909 24.0766 18.5723 23.1138 18.5723C18.5255 18.5723 14.8022 22.2979 14.8022 26.8862C14.8022 31.4746 18.5255 35.1978 23.1138 35.1978C27.7022 35.1978 31.4277 31.4746 31.4277 26.8862Z" fill="black"/>
<path fill-rule="evenodd" clip-rule="evenodd" d="M49.488 10.0887L42.3787 17.2003C42.0508 17.5282 41.6066 17.7119 41.1438 17.7119H34.0323C33.0695 17.7119 32.2881 16.9305 32.2881 15.9677V8.85613C32.2881 8.39334 32.4718 7.94916 32.7997 7.62125L39.9113 0.512006C40.3392 0.0841023 40.9578 -0.0926407 41.5462 0.0468931C42.1345 0.186427 42.6089 0.618982 42.7996 1.1934L44.3019 5.69801L48.8066 7.20033C49.381 7.39102 49.8135 7.86544 49.9531 8.45381C50.0926 9.04218 49.9159 9.66077 49.488 10.0887ZM45.0275 9.61891L42.3717 8.73287C41.8508 8.55846 41.4415 8.14916 41.2671 7.62823L40.381 4.97244L35.7764 9.57705V14.2235H40.4229L45.0275 9.61891Z" fill="#FF6900"/>
<path fill-rule="evenodd" clip-rule="evenodd" d="M32.7997 14.7327C33.4811 14.0513 34.5858 14.0513 35.2672 14.7327C35.9486 15.4141 35.9486 16.5188 35.2672 17.2001L24.5998 27.8652C23.9184 28.5466 22.8138 28.5466 22.1347 27.8652C21.4533 27.1861 21.4533 26.0815 22.1347 25.4001L32.7997 14.7327Z" fill="#FF6900"/>
</svg>
