<svg width="250" height="30" viewBox="0 0 250 30" fill="none" xmlns="http://www.w3.org/2000/svg">
<path d="M39.6553 22.4905L40.1249 10.5019C40.1439 9.80598 40.1566 9.43905 40.1566 9.40109C40.1566 9.01518 40.0614 8.73049 39.8774 8.54702C39.6871 8.36355 39.3444 8.256 38.8432 8.21805L38.9701 7.82581H45.0104L44.8962 8.21805C44.3823 8.21805 43.9889 8.37621 43.7224 8.6862C43.4559 8.9962 43.3036 9.63517 43.2592 10.6094L42.9229 18.081L48.5318 11.59C49.2614 10.7486 49.7056 10.1729 49.8769 9.84394C50.0482 9.52129 50.1307 9.2366 50.1307 8.9962C50.1307 8.81906 50.0546 8.6609 49.8959 8.52804C49.7437 8.38886 49.4454 8.28764 49.0077 8.21805L49.1536 7.82581H53.1191V8.21805C52.7828 8.30029 52.5037 8.42682 52.2943 8.58498C51.9834 8.81906 51.5012 9.31252 50.854 10.0654L40.1249 22.4842H39.6553V22.4905Z" fill="#24AED3"/>
<path d="M68.4483 7.50316L67.2491 12.3682H66.9001C66.824 11.609 66.6844 10.9954 66.4877 10.5399C66.1895 9.87558 65.7961 9.36946 65.3076 9.00885C64.819 8.64825 64.286 8.47111 63.715 8.47111C63.144 8.47111 62.6808 8.67988 62.2684 9.09742C61.856 9.51497 61.6466 9.98945 61.6466 10.5209C61.6466 11.0523 61.7925 11.5521 62.078 12.0582C62.3635 12.5643 63.0425 13.3235 64.1084 14.3357C64.9649 15.1455 65.536 15.8414 65.8342 16.4298C66.1324 17.0181 66.272 17.6508 66.272 18.334C66.272 19.0995 66.0689 19.8081 65.6565 20.4597C65.2441 21.105 64.654 21.6111 63.8673 21.9654C63.0869 22.3197 62.1986 22.4968 61.2088 22.4968C60.5997 22.4968 59.8383 22.4083 58.9119 22.2248C57.9919 22.0477 57.3765 21.9528 57.0719 21.9528C56.8308 21.9528 56.6151 21.9907 56.4248 22.0666C56.2344 22.1426 55.9997 22.2817 55.7141 22.4968H55.3017L56.5834 17.0308H56.9831C57.0719 17.9861 57.2686 18.8022 57.5668 19.4791C57.865 20.1497 58.2902 20.6748 58.8358 21.0544C59.3878 21.434 60.016 21.6175 60.7202 21.6175C61.4245 21.6175 62.0019 21.3897 62.4778 20.9279C62.9473 20.466 63.182 19.9283 63.182 19.3083C63.182 18.7769 63.0488 18.2708 62.7823 17.7836C62.5158 17.2965 61.9131 16.5879 60.9677 15.6579C60.0223 14.728 59.3751 13.8992 59.0135 13.1653C58.7533 12.6213 58.6201 12.0455 58.6201 11.4319C58.6201 10.369 59.0388 9.44538 59.8827 8.67355C60.7266 7.8954 61.8242 7.50949 63.182 7.50949C63.7975 7.50949 64.6033 7.64867 65.6121 7.9207C66.1958 8.08519 66.6146 8.16111 66.8494 8.16111C67.0524 8.16111 67.2364 8.11682 67.4014 8.02825C67.5663 7.93968 67.7567 7.76887 67.9724 7.50316H68.4419H68.4483Z" fill="#24AED3"/>
<path d="M77.7752 8.22438L77.8894 7.83214H84.9068L84.7673 8.22438C84.1328 8.22438 83.6442 8.36356 83.3079 8.64825C82.9717 8.93294 82.6798 9.5213 82.4196 10.4133L79.7929 19.5867C79.6025 20.2383 79.5074 20.6685 79.5074 20.8899C79.5074 21.143 79.6089 21.3391 79.8056 21.4846C80.0594 21.6681 80.5416 21.7693 81.2459 21.7819L81.138 22.1742H74.0064L74.1206 21.7819C74.8312 21.7819 75.3578 21.6491 75.6878 21.3771C76.0177 21.105 76.3222 20.5103 76.5887 19.593L79.2409 10.4197C79.4058 9.8566 79.482 9.43273 79.482 9.14171C79.482 8.88233 79.3805 8.67355 79.1838 8.52805C78.9871 8.38254 78.5112 8.28132 77.7625 8.2307L77.7752 8.22438Z" fill="#24AED3"/>
<path d="M90.9598 7.83213L95.452 17.3851L97.476 10.4513C97.5839 10.0717 97.6346 9.73007 97.6346 9.43905C97.6346 9.08477 97.5204 8.8064 97.2984 8.59131C97.0763 8.38253 96.6892 8.256 96.1499 8.22437L96.2641 7.83213H100.82L100.712 8.22437C100.135 8.26233 99.6523 8.42049 99.2779 8.71151C98.8973 9.00252 98.58 9.58456 98.3199 10.4576L94.8112 22.326H94.4114L88.644 10.1097L85.8586 19.631C85.7634 19.9599 85.719 20.2573 85.719 20.5167C85.719 20.8962 85.8459 21.1999 86.0933 21.434C86.3471 21.6617 86.7469 21.7756 87.2989 21.7756L87.2037 22.1679H82.5212L82.6164 21.7756C83.0161 21.7756 83.3079 21.7377 83.4729 21.6681C83.7711 21.5542 84.0566 21.3391 84.3421 21.0164C84.6277 20.6938 84.8561 20.232 85.0337 19.6246L88.0793 9.2113C87.7049 8.79375 87.3877 8.52804 87.1339 8.40784C86.8801 8.28764 86.4994 8.22437 85.9918 8.21805L86.106 7.82581H90.9598V7.83213Z" fill="#24AED3"/>
<path d="M102.381 7.83214H113.947L112.856 11.6913H112.475C112.488 11.4888 112.494 11.3054 112.494 11.1535C112.494 10.4197 112.279 9.85027 111.847 9.44538C111.416 9.04049 110.686 8.81274 109.665 8.7558L106.46 19.5487C106.283 20.1497 106.194 20.5926 106.194 20.8836C106.194 21.1493 106.302 21.3644 106.524 21.5226C106.746 21.6807 107.19 21.7693 107.863 21.7819L107.767 22.1742H100.636L100.763 21.7819C101.492 21.7819 102.019 21.6491 102.355 21.3771C102.685 21.105 102.99 20.4977 103.269 19.555L106.473 8.76213C105.369 8.80008 104.449 9.03416 103.707 9.48334C102.964 9.92619 102.285 10.6664 101.67 11.7039H101.258L102.393 7.84479L102.381 7.83214Z" fill="#24AED3"/>
<path d="M120.368 8.62294L118.769 14.1839H119.258C120.546 14.1839 121.485 14.0131 122.075 13.6778C122.665 13.3425 123.166 12.7415 123.572 11.8811H123.966L122.354 17.461H121.98C122.043 17.0877 122.075 16.7841 122.075 16.55C122.075 16.1641 121.961 15.8477 121.732 15.601C121.504 15.3543 121.206 15.1771 120.838 15.0696C120.597 15 120.102 14.962 119.34 14.962H118.516L117.139 19.7701C117.018 20.194 116.961 20.504 116.961 20.7128C116.961 20.8773 117.037 21.0038 117.196 21.105C117.424 21.2442 117.849 21.3138 118.477 21.3138C119.683 21.3138 120.825 21.0607 121.891 20.5483C122.957 20.0358 123.915 19.264 124.765 18.2265H125.197L123.699 22.1615H111.403L111.53 21.7693C112.253 21.7693 112.78 21.6364 113.11 21.3644C113.44 21.0924 113.744 20.4977 114.011 19.574L116.714 10.3437C116.86 9.83129 116.936 9.4264 116.936 9.12905C116.936 8.86334 116.841 8.65457 116.65 8.50906C116.46 8.36355 116.022 8.26866 115.349 8.21805L115.464 7.82581H126.922L126.002 11.4066H125.622C125.596 10.7043 125.482 10.2045 125.292 9.91353C124.994 9.46435 124.6 9.13538 124.112 8.92661C123.623 8.71783 122.824 8.61661 121.72 8.61661H120.375L120.368 8.62294Z" fill="#24AED3"/>
<path d="M132.874 15.1708L131.599 19.5171C131.415 20.1307 131.326 20.5799 131.326 20.8709C131.326 21.1366 131.434 21.3517 131.656 21.5162C131.878 21.6807 132.328 21.7693 133.026 21.7819L132.88 22.1742H125.958L126.085 21.7819C126.777 21.7819 127.284 21.6491 127.608 21.3834C127.931 21.1177 128.223 20.5167 128.49 19.5867L131.161 10.388C131.307 9.87557 131.383 9.47068 131.383 9.17333C131.383 8.87599 131.294 8.67355 131.11 8.52804C130.926 8.38253 130.501 8.28131 129.828 8.23069L129.936 7.83846H135.894C137.595 7.83846 138.794 8.1358 139.485 8.72416C140.177 9.31884 140.526 10.078 140.526 11.008C140.526 11.9886 140.126 12.8743 139.32 13.6588C138.813 14.1522 137.912 14.5761 136.617 14.9367L137.912 19.283C138.261 20.4471 138.559 21.1493 138.819 21.3834C139.079 21.6175 139.504 21.7503 140.107 21.7756V22.1679H135.634L133.597 15.1708L133.248 15.1898C133.172 15.1898 133.052 15.1835 132.887 15.1708H132.874ZM133.02 14.5382C133.267 14.5508 133.477 14.5571 133.648 14.5571C134.682 14.5571 135.526 14.2029 136.192 13.5006C136.859 12.7984 137.188 11.8747 137.188 10.7296C137.188 10.0527 137.011 9.54027 136.656 9.18599C136.3 8.83171 135.837 8.65457 135.253 8.65457C135.114 8.65457 134.949 8.65457 134.752 8.66722L133.014 14.5318L133.02 14.5382Z" fill="#24AED3"/>
<path d="M148.863 7.83213L153.355 17.3851L155.379 10.4513C155.487 10.0717 155.538 9.73007 155.538 9.43905C155.538 9.08477 155.424 8.8064 155.201 8.59131C154.979 8.38253 154.592 8.256 154.053 8.22437L154.167 7.83213H158.723L158.615 8.22437C158.038 8.26233 157.555 8.42049 157.181 8.71151C156.8 9.00252 156.483 9.58456 156.223 10.4576L152.714 22.326H152.315L146.547 10.1097L143.762 19.631C143.667 19.9599 143.622 20.2573 143.622 20.5167C143.622 20.8962 143.749 21.1999 143.996 21.434C144.25 21.6617 144.65 21.7756 145.202 21.7756L145.107 22.1679H140.424L140.52 21.7756C140.919 21.7756 141.211 21.7377 141.376 21.6681C141.674 21.5542 141.96 21.3391 142.245 21.0164C142.531 20.6938 142.759 20.232 142.937 19.6246L145.982 9.2113C145.608 8.79375 145.291 8.52804 145.037 8.40784C144.783 8.28764 144.403 8.22437 143.895 8.21805L144.009 7.82581H148.863V7.83213Z" fill="#24AED3"/>
<path d="M165.601 17.5495H161.147L160.258 18.6503L159.243 19.865C159.047 20.1244 158.901 20.3648 158.812 20.5736C158.742 20.7381 158.704 20.8962 158.704 21.0607C158.704 21.2252 158.793 21.3897 158.977 21.5289C159.154 21.6744 159.453 21.7566 159.871 21.7756V22.1678H155.576L155.684 21.7756C156.064 21.7123 156.407 21.5795 156.699 21.377C157.092 21.0924 157.663 20.5166 158.406 19.6309L168.596 7.50948H169.071L168.596 19.245C168.576 19.8587 168.564 20.2256 168.564 20.3522C168.564 20.833 168.659 21.1809 168.856 21.396C169.052 21.6174 169.376 21.744 169.826 21.7756L169.719 22.1678H163.494L163.608 21.7756C164.224 21.7187 164.579 21.6681 164.668 21.6301C164.865 21.5289 165.049 21.3264 165.207 21.0101C165.366 20.6938 165.468 20.1497 165.506 19.3779L165.601 17.5495ZM165.601 16.6828L165.874 12.0139L161.876 16.6828H165.594H165.601Z" fill="#24AED3"/>
<path d="M173.564 7.83214H185.13L184.039 11.6913H183.658C183.671 11.4888 183.677 11.3054 183.677 11.1535C183.677 10.4197 183.461 9.85027 183.03 9.44538C182.599 9.04049 181.869 8.81274 180.847 8.7558L177.643 19.5487C177.466 20.1497 177.377 20.5926 177.377 20.8836C177.377 21.1493 177.485 21.3644 177.707 21.5226C177.929 21.6807 178.373 21.7693 179.045 21.7819L178.95 22.1742H171.819L171.946 21.7819C172.675 21.7819 173.202 21.6491 173.538 21.3771C173.868 21.105 174.173 20.4977 174.452 19.555L177.656 8.76213C176.552 8.80008 175.632 9.03416 174.89 9.48334C174.147 9.92619 173.468 10.6664 172.853 11.7039H172.44L173.576 7.84479L173.564 7.83214Z" fill="#24AED3"/>
<path d="M186.348 8.22438L186.463 7.83214H193.48L193.34 8.22438C192.706 8.22438 192.217 8.36356 191.881 8.64825C191.545 8.93294 191.253 9.5213 190.993 10.4133L188.366 19.5867C188.176 20.2383 188.081 20.6685 188.081 20.8899C188.081 21.143 188.182 21.3391 188.379 21.4846C188.633 21.6681 189.115 21.7693 189.819 21.7819L189.711 22.1742H182.58L182.694 21.7819C183.404 21.7819 183.931 21.6491 184.261 21.3771C184.591 21.105 184.895 20.5103 185.162 19.593L187.814 10.4197C187.979 9.8566 188.055 9.43273 188.055 9.14171C188.055 8.88233 187.954 8.67355 187.757 8.52805C187.56 8.38254 187.084 8.28132 186.336 8.2307L186.348 8.22438Z" fill="#24AED3"/>
<path d="M197.902 22.5032C196.741 22.5032 195.809 22.2691 195.092 21.7946C194.381 21.3201 193.842 20.6748 193.486 19.8587C193.131 19.0426 192.953 18.2455 192.953 17.4673C192.953 15.9047 193.404 14.3294 194.299 12.7351C195.193 11.1472 196.405 9.87558 197.928 8.92029C199.451 7.96499 200.954 7.49051 202.439 7.49051C203.308 7.49051 204.133 7.71193 204.914 8.14846C205.694 8.58498 206.303 9.19232 206.734 9.9768C207.166 10.7613 207.388 11.5458 207.388 12.3429C207.388 14.1269 206.817 15.911 205.681 17.7077C204.546 19.4981 203.264 20.8013 201.843 21.6048C200.77 22.2058 199.457 22.5032 197.902 22.5032ZM202.09 8.36356C201.532 8.36356 201.056 8.46478 200.662 8.66723C200.269 8.86967 199.863 9.20498 199.438 9.67946C199.013 10.1539 198.581 10.8245 198.144 11.7039C197.706 12.5833 197.293 13.7727 196.906 15.2847C196.519 16.7904 196.329 18.0493 196.329 19.0553C196.329 19.9156 196.519 20.5673 196.894 21.0038C197.268 21.4466 197.75 21.6617 198.334 21.6617C199.108 21.6617 199.774 21.4024 200.313 20.8899C201.392 19.8714 202.274 18.372 202.959 16.3918C203.638 14.418 203.981 12.6529 203.981 11.1092C203.981 10.1413 203.797 9.44538 203.435 9.00886C203.074 8.57233 202.623 8.35723 202.084 8.35723L202.09 8.36356Z" fill="#24AED3"/>
<path d="M215.211 7.83213L219.703 17.3851L221.727 10.4513C221.835 10.0717 221.886 9.73007 221.886 9.43905C221.886 9.08477 221.772 8.8064 221.55 8.59131C221.328 8.38253 220.941 8.256 220.401 8.22437L220.515 7.83213H225.071L224.963 8.22437C224.386 8.26233 223.904 8.42049 223.529 8.71151C223.149 9.00252 222.831 9.58456 222.571 10.4576L219.063 22.326H218.663L212.895 10.1097L210.11 19.631C210.015 19.9599 209.97 20.2573 209.97 20.5167C209.97 20.8962 210.097 21.1999 210.345 21.434C210.598 21.6617 210.998 21.7756 211.55 21.7756L211.455 22.1679H206.773L206.868 21.7756C207.267 21.7756 207.559 21.7377 207.724 21.6681C208.022 21.5542 208.308 21.3391 208.593 21.0164C208.879 20.6938 209.107 20.232 209.285 19.6246L212.331 9.2113C211.956 8.79375 211.639 8.52804 211.385 8.40784C211.131 8.28764 210.751 8.22437 210.243 8.21805L210.357 7.82581H215.211V7.83213Z" fill="#24AED3"/>
<path d="M231.949 17.5495H227.495L226.607 18.6503L225.591 19.865C225.395 20.1244 225.249 20.3648 225.16 20.5736C225.09 20.7381 225.052 20.8962 225.052 21.0607C225.052 21.2252 225.141 21.3897 225.325 21.5289C225.503 21.6744 225.801 21.7566 226.22 21.7756V22.1678H221.924L222.032 21.7756C222.413 21.7123 222.755 21.5795 223.047 21.377C223.441 21.0924 224.012 20.5166 224.754 19.6309L234.944 7.50948H235.42L234.944 19.245C234.925 19.8587 234.912 20.2256 234.912 20.3522C234.912 20.833 235.007 21.1809 235.204 21.396C235.401 21.6174 235.724 21.744 236.175 21.7756L236.067 22.1678H229.842L229.957 21.7756C230.572 21.7187 230.927 21.6681 231.016 21.6301C231.213 21.5289 231.397 21.3264 231.556 21.0101C231.714 20.6938 231.816 20.1497 231.854 19.3779L231.949 17.5495ZM231.949 16.6828L232.222 12.0139L228.225 16.6828H231.943H231.949Z" fill="#24AED3"/>
<path d="M248.414 22.1679H236.936L237.05 21.7756C237.735 21.7756 238.237 21.6428 238.548 21.3771C238.865 21.1113 239.15 20.5167 239.423 19.593L242.094 10.388C242.24 9.8819 242.316 9.48333 242.316 9.19232C242.316 8.9013 242.209 8.6862 241.999 8.51539C241.79 8.34457 241.371 8.24968 240.749 8.21805L240.863 7.82581H247.767L247.652 8.21805C246.986 8.2307 246.491 8.38253 246.161 8.6609C245.831 8.94559 245.54 9.51497 245.286 10.3817L242.849 18.8085C242.538 19.8777 242.38 20.5293 242.38 20.7634C242.38 20.9026 242.462 21.0354 242.621 21.162C242.78 21.2885 243.033 21.3454 243.389 21.3454C244.563 21.3454 245.692 21.0797 246.783 20.542C247.875 20.0042 248.801 19.2071 249.556 18.1442H250L248.407 22.1615L248.414 22.1679Z" fill="#24AED3"/>
<path d="M0 0.0822438L14.1554 30L34.0719 0L0 0.0822438ZM19.9546 5.83298C19.2503 5.83931 18.6666 5.90257 18.2034 6.02278C17.7339 6.13665 17.3849 6.30747 17.1375 6.51624C16.9725 6.66175 16.8456 6.80725 16.7568 6.99072C16.6426 7.2248 16.5791 7.50316 16.5791 7.83214C16.5728 8.40785 16.7695 9.13539 17.1501 9.99578L20.0624 16.4994L19.9736 16.6259C18.2415 19.2957 16.5093 21.9591 14.7835 24.6288L14.4917 25.078L4.44774 2.62547L12.9499 2.6065L11.9791 3.15057C11.7887 3.25812 11.5794 3.42261 11.37 3.63138C11.0972 3.90342 10.9068 4.17545 10.7863 4.39055C10.6657 4.59933 10.5452 4.84606 10.4563 5.11809C9.97411 6.53522 10.3738 7.85744 10.6213 8.47744L15.1198 18.5491L16.4712 16.4614L14.2632 11.5015C13.6161 10.1476 13.2481 8.76845 13.2481 7.49684C13.2481 6.47828 13.4892 5.51666 14.0158 4.73218C14.5551 3.93505 15.3736 3.32138 16.4903 2.96078C17.239 2.71404 18.1146 2.58752 19.1297 2.58752H19.1615L29.1039 2.56854L21.4012 14.418L19.9355 11.1282L23.3745 5.82033L19.9419 5.83298H19.9546Z" fill="#24AED3"/>
</svg>
