<svg width="24" height="24" viewBox="0 0 24 24" fill="none" xmlns="http://www.w3.org/2000/svg">
<mask id="mask0_29_326" style="mask-type:luminance" maskUnits="userSpaceOnUse" x="0" y="0" width="24" height="24">
<path d="M0 -1.11262e-06H24V24H0V-1.11262e-06Z" fill="white"/>
</mask>
<g mask="url(#mask0_29_326)">
<path fill-rule="evenodd" clip-rule="evenodd" d="M0.140625 23.2969C0.140625 23.6075 0.392465 23.8594 0.703125 23.8594H23.2969C23.6075 23.8594 23.8594 23.6075 23.8594 23.2969V9.14062C23.8594 8.96201 23.7745 8.794 23.6308 8.68797L20.7714 6.57859C20.5214 6.39417 20.1693 6.44733 19.9848 6.69732C19.8004 6.94732 19.8536 7.29948 20.1036 7.48391L22.7344 9.42466V22.7344H1.26563V9.42466L3.89643 7.48391C4.14642 7.29948 4.19958 6.94732 4.01516 6.69732C3.83073 6.44733 3.47857 6.39417 3.22857 6.57859L0.369197 8.68797C0.225459 8.794 0.140625 8.96201 0.140625 9.14062V23.2969Z" fill="black"/>
<path fill-rule="evenodd" clip-rule="evenodd" d="M7.79997 3.85309C7.98637 4.10162 8.33894 4.15199 8.58747 3.96559L12 1.40622L15.4125 3.96559C15.661 4.15199 16.0136 4.10162 16.2 3.85309C16.3864 3.60456 16.336 3.25199 16.0875 3.06559L12.3375 0.253092C12.1375 0.103092 11.8625 0.103092 11.6625 0.253092L7.91247 3.06559C7.66394 3.25199 7.61358 3.60456 7.79997 3.85309Z" fill="black"/>
<path fill-rule="evenodd" clip-rule="evenodd" d="M3.5625 13.9219C3.87316 13.9219 4.125 13.67 4.125 13.3594V4.07812H19.875V13.3594C19.875 13.67 20.1268 13.9219 20.4375 13.9219C20.7482 13.9219 21 13.67 21 13.3594V3.51562C21 3.20496 20.7482 2.95312 20.4375 2.95312H3.5625C3.25184 2.95312 3 3.20496 3 3.51562V13.3594C3 13.67 3.25184 13.9219 3.5625 13.9219Z" fill="#FF6900"/>
<path fill-rule="evenodd" clip-rule="evenodd" d="M11.7493 18.0817C11.9072 18.1603 12.0928 18.1603 12.2507 18.0817L23.5476 12.4567C23.8257 12.3182 23.9389 11.9805 23.8004 11.7024C23.6619 11.4243 23.3242 11.3111 23.0462 11.4496L12 16.9498L0.953848 11.4496C0.675755 11.3111 0.338064 11.4243 0.199594 11.7024C0.0611247 11.9805 0.174312 12.3182 0.452405 12.4567L11.7493 18.0817Z" fill="black"/>
<path fill-rule="evenodd" clip-rule="evenodd" d="M7.21875 7.73437C7.21875 8.04504 7.47059 8.29688 7.78125 8.29688H16.2188C16.5294 8.29688 16.7813 8.04504 16.7813 7.73437C16.7813 7.42371 16.5294 7.17187 16.2188 7.17187H7.78125C7.47059 7.17187 7.21875 7.42371 7.21875 7.73437Z" fill="#FF6900"/>
<path fill-rule="evenodd" clip-rule="evenodd" d="M7.21875 10.5469C7.21875 10.8575 7.47059 11.1094 7.78125 11.1094H12C12.3107 11.1094 12.5625 10.8575 12.5625 10.5469C12.5625 10.2362 12.3107 9.98437 12 9.98437H7.78125C7.47059 9.98437 7.21875 10.2362 7.21875 10.5469Z" fill="#FF6900"/>
</g>
</svg>
