<svg width="20" height="24" viewBox="0 0 20 24" fill="none" xmlns="http://www.w3.org/2000/svg">
<path d="M9.99939 1.17399C13.452 1.17399 16.2538 3.91784 16.2538 7.30343C16.2538 8.61925 15.6801 10.6164 14.4668 12.0045L9.99939 17.1027L5.53383 12.006C4.31896 10.6179 3.74527 8.62077 3.74527 7.30343C3.74527 3.91784 6.54684 1.17399 9.99939 1.17399ZM9.99939 0C5.89768 0 2.55096 3.28155 2.55096 7.30313C2.55096 8.93135 3.17435 11.1097 4.62483 12.7675V12.7694L6.70728 15.1455H3.12956C2.87124 15.1467 2.64177 15.3103 2.562 15.5507L0.0294936 23.2352C-0.0956747 23.6132 0.193317 24 0.59858 24H19.4002C19.8073 24 20.0945 23.6132 19.9711 23.2352L17.4368 15.5507C17.357 15.3091 17.1275 15.1455 16.868 15.1455H14.595C13.7566 15.1046 13.7566 16.3606 14.595 16.3179H16.4336L18.578 22.826H1.4226L3.56519 16.3179H7.73409L9.33735 18.1473H8.28569C7.96203 18.1412 7.69452 18.3971 7.69452 18.7161C7.69452 19.0352 7.96203 19.2931 8.28569 19.2868H11.7094C12.0349 19.2931 12.3024 19.0352 12.3024 18.7161C12.3024 18.3971 12.0346 18.1415 11.7094 18.1473H10.6627L15.3737 12.7694V12.7675C16.826 11.1097 17.4494 8.93135 17.4494 7.30313C17.4497 3.28155 14.1011 0 9.99939 0Z" fill="black"/>
<path d="M11.2852 8.56377C10.5703 9.26478 9.42849 9.26629 8.71399 8.56559C7.99918 7.86458 7.99918 6.74261 8.71399 6.04099C9.4288 5.34029 10.5703 5.3418 11.2852 6.04281C12.0015 6.74351 12.0015 7.86156 11.2852 8.56226V8.56377ZM12.1328 9.39331C13.3047 8.24472 13.3047 6.36337 12.1328 5.21297C10.9593 4.06378 9.04071 4.06378 7.86941 5.21297C6.69596 6.36337 6.69596 8.24442 7.86941 9.39331C9.04071 10.5425 10.9593 10.5425 12.1328 9.39331Z" fill="#FF6900"/>
</svg>
