<svg width="16" height="3" viewBox="0 0 16 3" fill="none" xmlns="http://www.w3.org/2000/svg">
<path d="M14.5938 0.00513072H9.40625V0.000434233C9.40625 0.000434233 8.77666 0.000434233 8 0.000434233C7.22334 0.000434233 6.59375 3.46036e-05 6.59375 3.46036e-05V0.00513072H1.40625C0.629594 0.00513072 0 0.675549 0 1.50257C0 2.32958 0.629594 3 1.40625 3H6.59375C6.59375 3 7.22334 3 8 3C8.77666 3 9.40625 3 9.40625 3H14.5938C15.3704 3 16 2.32958 16 1.50257C16 0.675549 15.3704 0.00513072 14.5938 0.00513072Z" fill="#FF6900"/>
</svg>
