<svg width="50" height="50" viewBox="0 0 50 50" fill="none" xmlns="http://www.w3.org/2000/svg">
<path d="M49.5534 0.447009C49.2627 0.155947 48.8644 -0.00808533 48.4555 0.000307015C48.2766 0.00259584 44.0091 0.071642 38.3835 1.46477C33.1604 2.75834 25.7424 5.49157 20.0668 11.1671C19.4073 11.827 18.7889 12.511 18.206 13.2118C13.604 12.5873 9.18121 13.8797 5.30547 17.0093C2.00155 19.6769 0.266626 22.7363 0.194528 22.8653C-0.06182 23.323 -0.0648718 23.88 0.185754 24.3408C0.436762 24.8012 0.906733 25.1003 1.43049 25.1331L10.0876 25.6736L7.7156 28.0456C7.42949 28.3317 7.2689 28.7197 7.2689 29.1244C7.2689 29.5288 7.42949 29.9167 7.7156 30.2028L8.91456 31.4018C8.89816 31.4182 8.88061 31.4342 8.8642 31.4506C3.72275 36.5925 3.56329 44.5595 3.5591 44.8963C3.55376 45.3075 3.71512 45.7035 4.0058 45.9942C4.2919 46.2803 4.67986 46.4409 5.08421 46.4409H5.10367C5.44051 46.4367 13.4075 46.2772 18.549 41.1354C18.5658 41.119 18.5818 41.1018 18.5978 41.085L19.7971 42.2844C20.0832 42.5705 20.4712 42.7311 20.8756 42.7311C21.2803 42.7311 21.6683 42.5705 21.9544 42.2844L24.3263 39.912L24.8669 48.5695C24.8993 49.0929 25.1988 49.5628 25.6596 49.8138C25.8869 49.9382 26.1379 50 26.3893 50C26.6461 50 26.9032 49.9352 27.1347 49.8055C27.2637 49.733 30.3231 47.9984 32.9907 44.6945C36.1203 40.8184 37.4131 36.396 36.7886 31.7939C37.489 31.2114 38.1733 30.5927 38.8329 29.9331C44.5088 24.2576 47.2416 16.8399 48.5352 11.6165C49.9283 5.9913 49.9974 1.72341 49.9997 1.5445C50.005 1.13366 49.844 0.737689 49.5534 0.447009ZM10.9512 29.1244L13.5567 26.519L23.481 36.4433L20.8756 39.0488L10.9512 29.1244ZM11.0214 33.6082C11.0382 33.5914 11.0546 33.575 11.0714 33.5586L16.4413 38.929C16.4249 38.9454 16.4085 38.9622 16.3921 38.9786C13.427 41.9437 9.12017 42.9184 6.76307 43.2373C7.08197 40.879 8.05701 36.573 11.0214 33.6082ZM26.0033 34.6512L15.3484 23.9963C16.8648 20.288 19.0563 16.492 22.2241 13.3243C26.4427 9.10562 31.7795 6.65429 36.2229 5.24285L44.7571 13.7775C43.3457 18.2205 40.8947 23.5572 36.6757 27.7759C33.4698 30.9818 29.6177 33.1669 26.0033 34.6512ZM45.6719 10.4797L39.5203 4.32809C42.6083 3.59147 45.2519 3.27828 46.8541 3.14591C46.7217 4.74847 46.4085 7.39206 45.6719 10.4797ZM7.29751 19.3222C10.017 17.1508 12.9532 16.0755 16.0614 16.1041C14.6091 18.3006 13.4609 20.5772 12.5557 22.771L4.34798 22.2587C5.07735 21.3657 6.06612 20.3056 7.29751 19.3222ZM30.6782 42.7025C29.6944 43.9339 28.6343 44.923 27.7413 45.6524L27.2289 37.4443C29.4228 36.5387 31.6994 35.3908 33.8959 33.9386C33.9249 37.0472 32.8495 39.9834 30.6782 42.7025Z" fill="black"/>
<path d="M36.3861 13.6137C35.2257 12.4529 33.6823 11.814 32.0412 11.814C30.3997 11.814 28.8563 12.4529 27.6959 13.6137C25.2999 16.0098 25.2999 19.908 27.6959 22.304C28.8563 23.4648 30.3997 24.1042 32.0412 24.1042C33.6823 24.1042 35.2253 23.4648 36.3861 22.304C37.547 21.1436 38.1859 19.6002 38.1859 17.9591C38.1859 16.3176 37.547 14.7742 36.3861 13.6137ZM34.2289 20.1468C33.6445 20.7316 32.8675 21.0532 32.0412 21.0532C31.2146 21.0532 30.4375 20.7316 29.8527 20.1472C28.6465 18.9406 28.6465 16.9775 29.8527 15.771C30.4375 15.1865 31.2146 14.8646 32.0412 14.8646C32.8675 14.8646 33.6445 15.1865 34.2289 15.771C34.8133 16.3554 35.1353 17.1324 35.1353 17.9591C35.1353 18.7857 34.8133 19.5624 34.2289 20.1468Z" fill="#FF6900"/>
</svg>
