<svg width="24" height="24" viewBox="0 0 24 24" fill="none" xmlns="http://www.w3.org/2000/svg">
<path d="M23.2825 17.4663L23.2775 17.4628L23.2765 17.4618L23.2729 17.4587H23.2724C23.2684 17.4557 23.2618 17.4511 23.2542 17.4451C23.238 17.4339 23.2147 17.4172 23.1848 17.396C23.1251 17.3539 23.039 17.2932 22.9306 17.2182C22.7144 17.0684 22.4101 16.8608 22.0511 16.6233C21.3332 16.1489 20.398 15.5565 19.5175 15.0765C18.9311 14.757 18.3681 14.4871 17.9175 14.3362C17.6608 14.2501 17.44 14.2041 17.2841 14.2046C17.2471 14.2046 17.2132 14.2071 17.1843 14.2111C17.1838 14.2116 17.1828 14.2116 17.1823 14.2116C17.0395 14.2375 16.9149 14.28 16.7944 14.3423C16.6739 14.4051 16.557 14.4881 16.4339 14.5975C16.3109 14.7058 16.1813 14.8405 16.038 15.0015C15.8947 15.1625 15.7367 15.3509 15.5554 15.5666C15.438 15.7068 15.1565 16.04 14.9362 16.281L14.8699 16.3534L14.7772 16.323C14.3119 16.1716 13.8582 15.9868 13.4192 15.7706H13.4203C11.158 14.6694 9.33063 12.842 8.22937 10.5797V10.5808C8.01316 10.1418 7.82835 9.6881 7.67696 9.22278L7.64658 9.13013L7.71899 9.0638C7.96051 8.84253 8.29519 8.56101 8.43797 8.44051C8.76 8.17013 9.02025 7.9519 9.22127 7.75544C9.42278 7.55848 9.56354 7.38532 9.65722 7.20456C9.72 7.08354 9.76253 6.95848 9.78836 6.81367H9.78785C9.79342 6.78228 9.79646 6.74532 9.79646 6.7038C9.79696 6.5524 9.75443 6.34177 9.67443 6.09772C9.59443 5.85316 9.47848 5.57316 9.33722 5.27494C9.05468 4.67696 8.67241 4.00304 8.28152 3.36152C7.49975 2.07848 6.68253 0.923038 6.55241 0.742785C6.54684 0.73519 6.54228 0.728608 6.53975 0.725063L6.53873 0.724051C6.53873 0.724051 6.53823 0.722532 6.53772 0.722532L6.5362 0.721013L6.53316 0.716456C6.24101 0.301772 5.77873 0.0394937 5.27291 0H5.27089C5.19241 0.000506329 5.0881 0.0248101 4.96608 0.0764557C4.84253 0.128101 4.70127 0.207595 4.54937 0.309367C4.24456 0.513924 3.8962 0.809114 3.53316 1.15949C2.80709 1.86025 2.02177 2.78025 1.37671 3.63646C0.946329 4.20709 0.577722 4.75038 0.330127 5.17873C0.188354 5.42329 0.0865823 5.63139 0.0364557 5.77722C0.0101266 5.85367 0 5.91392 0 5.94076V5.9443C0 5.94734 0 5.95089 0.000506329 5.95646C0.000506329 5.96658 0.00101266 5.98228 0.00202532 6.00253C0.00405063 6.04253 0.00810127 6.10228 0.0151899 6.17975C0.0293671 6.33519 0.0567089 6.56304 0.108861 6.8562C0.214177 7.44253 0.420759 8.28962 0.826329 9.33823C1.63747 11.4365 3.24304 14.3418 6.42785 17.5813C9.24759 20.3529 11.8147 21.9266 13.8157 22.8218C15.8172 23.7165 17.2522 23.9322 17.8071 23.9838C17.962 23.998 18.0491 24 18.0587 24H18.0592C18.0754 24 18.1048 23.9965 18.1423 23.9868C18.1797 23.9777 18.2263 23.9625 18.279 23.9418C18.3848 23.9008 18.516 23.838 18.6648 23.7575C18.9625 23.5954 19.3322 23.361 19.7357 23.079C20.5418 22.5159 21.483 21.7641 22.276 21.0208C22.8046 20.5256 23.2678 20.0329 23.5797 19.6076C23.758 19.3651 23.8866 19.1443 23.9504 18.9656C23.9838 18.8724 23.9995 18.7919 24 18.7281C23.9605 18.2213 23.6977 17.7585 23.2825 17.4663ZM22.5878 18.8137C21.2744 20.2714 19.7716 21.5473 18.121 22.6081V22.6922L17.956 22.678C17.5899 22.6471 16.3073 22.4846 14.4329 21.6577C12.558 20.8309 10.0911 19.3392 7.35696 16.6532L7.35595 16.6522L7.35494 16.6511C4.6557 13.9033 3.16152 11.4284 2.3357 9.55139C1.50937 7.67494 1.3519 6.39747 1.32253 6.04456L1.31848 5.99342L1.34582 5.95038C2.41519 4.2719 3.70633 2.74582 5.18481 1.41367L5.29215 1.31747L5.39392 1.41924C5.43241 1.45772 5.47595 1.50734 5.53165 1.57114L5.5357 1.5757L5.53924 1.58127C6.67139 3.12608 7.64658 4.78025 8.45013 6.51899L8.49468 6.61468L8.42025 6.68962C8.15595 6.95544 7.87696 7.20557 7.5838 7.43949L7.58278 7.44051L7.58127 7.44152C7.14481 7.77418 6.7438 8.15089 6.3843 8.56608C6.30684 8.67696 6.26582 8.80911 6.26582 8.94278C6.26582 8.97873 6.26886 9.01468 6.27494 9.05063C6.44354 9.77975 6.70127 10.4851 7.04253 11.1514L7.04354 11.1529V11.1539C8.27494 13.682 10.318 15.7246 12.8461 16.9549L12.8471 16.956H12.8486C13.5129 17.2982 14.2172 17.5554 14.9453 17.7246C14.9468 17.7246 14.9478 17.7251 14.9494 17.7251C14.9858 17.7311 15.0228 17.7347 15.0587 17.7347C15.1929 17.7347 15.3246 17.6932 15.4349 17.6142C15.8511 17.2542 16.2289 16.8516 16.5625 16.4137L16.5646 16.4111L16.5671 16.4081C16.758 16.1808 16.997 15.8962 17.1625 15.7154C17.2182 15.6552 17.2653 15.6066 17.3053 15.5706L17.3792 15.5048L17.4694 15.5463C19.2127 16.3494 20.8704 17.3256 22.4182 18.4608L22.4223 18.4638L22.4263 18.4668C22.4957 18.5256 22.5458 18.5711 22.5762 18.599L22.6896 18.7003L22.5878 18.8137Z" fill="black"/>
<path d="M19.1372 11.038H17.8198C17.7793 9.71494 17.2263 8.52001 16.3534 7.64659C15.48 6.77368 14.2851 6.22077 12.962 6.18026V4.86279C14.6486 4.90431 16.1712 5.60456 17.2836 6.71646C18.3955 7.82887 19.0957 9.3514 19.1372 11.038Z" fill="#FF6900"/>
<path d="M23.1884 11.0379H21.8719C21.7858 6.15532 17.8446 2.21405 12.962 2.12798V0.811523C18.5711 0.898106 23.1018 5.42874 23.1884 11.0379Z" fill="#FF6900"/>
</svg>
