<svg width="24" height="24" viewBox="0 0 24 24" fill="none" xmlns="http://www.w3.org/2000/svg">
<path fill-rule="evenodd" clip-rule="evenodd" d="M12 22.8C17.9647 22.8 22.8 17.9648 22.8 12C22.8 6.03533 17.9648 1.19997 12 1.19997C6.03533 1.19997 1.19997 6.03533 1.19997 12C1.19997 17.9647 6.03533 22.8 12 22.8ZM12 24C18.6273 24 24 18.6273 24 12C24 5.37253 18.6273 0 12 0C5.37253 0 0 5.37253 0 12C0 18.6273 5.37253 24 12 24Z" fill="white"/>
<path fill-rule="evenodd" clip-rule="evenodd" d="M15.1182 12L9.59993 8.32118V15.6789L15.1182 12ZM16.2331 11.3011C16.7319 11.6336 16.7319 12.3665 16.2331 12.699L9.70579 17.0506C9.14759 17.4228 8.39983 17.0225 8.39983 16.3516V7.64851C8.39983 6.97761 9.14759 6.57745 9.70579 6.94962L16.2331 11.3011Z" fill="white"/>
</svg>
