<svg width="45" height="50" viewBox="0 0 45 50" fill="none" xmlns="http://www.w3.org/2000/svg">
<path d="M32.7208 29.2299C35.3374 26.6216 36.9581 23.0142 36.9581 19.0387C36.9581 15.0632 35.3364 11.4539 32.7208 8.84455C30.1051 6.23425 26.4876 4.61612 22.501 4.61612C18.5143 4.61612 14.8959 6.23425 12.2812 8.84455C9.66552 11.4539 8.04383 15.0632 8.04383 19.0387C8.04383 23.0142 9.66552 26.6225 12.2812 29.2299C14.8969 31.8392 18.5143 33.4554 22.501 33.4554C26.4876 33.4554 30.1061 31.8382 32.7208 29.2299ZM22.501 7.30747C25.7551 7.30747 28.691 8.618 30.819 10.74C32.946 12.863 34.2583 15.7927 34.2592 19.0377C34.2592 22.2828 32.946 25.2104 30.819 27.3325C28.691 29.4535 25.7551 30.7621 22.501 30.7631C19.2468 30.7631 16.309 29.4535 14.18 27.3325C12.0511 25.2104 10.7378 22.2828 10.7378 19.0377C10.7378 15.7927 12.052 12.864 14.181 10.74C16.3109 8.61702 19.2478 7.30748 22.502 7.3065L22.501 7.30747Z" fill="black"/>
<path d="M44.8237 41.8293V41.8273L38.0304 30.0971C40.2681 26.979 41.5862 23.1597 41.5862 19.0387C41.5862 13.7888 39.4465 9.02619 35.9926 5.58095C32.5396 2.13472 27.7646 0 22.5 0C17.2354 0 12.4604 2.13472 9.00744 5.58095C5.55351 9.02521 3.41378 13.7888 3.41378 19.0387C3.41378 23.1597 4.73189 26.979 6.96956 30.0971L0.179209 41.8263L0.17725 41.8293C0.0577777 42.0373 0 42.2687 0 42.4953C0 42.7296 0.0607155 42.9581 0.176271 43.1622C0.291826 43.3654 0.46418 43.5431 0.680602 43.6661C0.885272 43.7823 1.11638 43.8429 1.34945 43.8429C1.43661 43.8429 1.52474 43.8341 1.61092 43.8175L8.49234 42.4621L10.7545 49.086V49.084C10.8475 49.3633 11.0287 49.5947 11.2539 49.7529C11.4792 49.9111 11.7504 50 12.0334 50C12.1764 50 12.3223 49.9766 12.4643 49.9297C12.7777 49.8242 13.0411 49.6084 13.2046 49.3223V49.3242L19.8275 37.884C20.7011 38.0061 21.5932 38.0715 22.5 38.0715C23.4068 38.0715 24.2989 38.0071 25.1725 37.884L31.7963 49.3242V49.3223C31.9187 49.5381 32.096 49.71 32.2997 49.8242C32.5034 49.9395 32.7325 50 32.9676 50C33.1947 50 33.4268 49.9424 33.6364 49.8223C33.9233 49.6582 34.1398 49.3955 34.2455 49.084V49.086L36.5067 42.4621L43.3881 43.8175C43.4753 43.8351 43.5634 43.8429 43.6506 43.8429C43.9678 43.8429 44.2665 43.7316 44.5015 43.5411C44.7366 43.3517 44.9109 43.0763 44.9745 42.758C44.9922 42.671 45 42.5841 45 42.4962C45 42.2638 44.9393 42.0343 44.8228 41.8302L44.8237 41.8293ZM9.00842 32.4925C11.2206 34.6995 13.9763 36.3665 17.0562 37.2815L12.3507 45.4034L10.6663 40.4748C10.5723 40.1984 10.3931 39.9699 10.1699 39.8117C9.9456 39.6535 9.67433 39.5647 9.39034 39.5647C9.30515 39.5647 9.21799 39.5725 9.13181 39.5891H9.12985L4.00429 40.5978L8.81355 32.2923C8.87818 32.3587 8.94281 32.4261 9.00842 32.4916V32.4925ZM6.11464 19.0377C6.11464 14.5183 7.9459 10.4353 10.9102 7.47642C13.8764 4.51847 17.9689 2.69135 22.501 2.69135C27.0331 2.69135 31.1255 4.51847 34.0918 7.47642C37.057 10.4353 38.8873 14.5183 38.8873 19.0377C38.8873 23.5572 37.0561 27.6381 34.0918 30.5961C31.1265 33.5521 27.0331 35.3782 22.501 35.3782C17.9689 35.3782 13.8764 33.5521 10.9102 30.5961C7.94492 27.6391 6.11464 23.5572 6.11464 19.0377ZM35.9935 32.4925C36.0592 32.4271 36.1238 32.3597 36.1884 32.2933L40.9977 40.5978L35.8721 39.5891H35.8702C35.784 39.5725 35.6978 39.5637 35.6116 39.5637C35.3276 39.5637 35.0564 39.6535 34.8321 39.8107C34.6079 39.968 34.4296 40.1975 34.3356 40.4728L32.6512 45.4024L27.9458 37.2805C31.0247 36.3665 33.7804 34.6985 35.9935 32.4916V32.4925Z" fill="black"/>
<path d="M31.0364 16.0632L31.0521 16.1178V16.1188L31.0364 16.0632Z" fill="black"/>
<path d="M13.899 16.9372C13.9342 17.0778 13.992 17.1911 14.037 17.2682C14.0831 17.3454 14.1115 17.3893 14.1144 17.3961L14.1222 17.4108L14.131 17.4254C14.3073 17.7184 14.5433 18.0465 14.8097 18.3922C15.2083 18.9088 15.6705 19.4596 16.0671 19.9205C16.2649 20.151 16.4461 20.359 16.5939 20.5279C16.6576 20.6002 16.7144 20.6656 16.7634 20.7223C16.6889 21.8863 16.5489 22.9947 16.5479 24.1265C16.5479 24.3833 16.5558 24.6421 16.5734 24.9019L16.5753 24.9253L16.5783 24.9478C16.5802 24.9526 16.5822 24.9985 16.589 25.0776C16.5949 25.1362 16.6037 25.2134 16.6263 25.3003C16.6586 25.4311 16.7242 25.5825 16.826 25.7202C16.9269 25.8589 17.0581 25.9839 17.2207 26.1011C17.3686 26.2085 17.5154 26.2895 17.6633 26.3432C17.8112 26.3979 17.962 26.4214 18.0942 26.4214C18.2186 26.4214 18.3243 26.4018 18.3978 26.3852C18.4712 26.3686 18.5153 26.3569 18.5212 26.3569L18.5417 26.354L18.5623 26.3491C18.8972 26.268 19.2752 26.147 19.6728 26.0073C20.2672 25.7973 20.9028 25.5425 21.4541 25.3159C21.7293 25.2026 21.9839 25.0952 22.2013 25.0054C22.3149 24.9575 22.4177 24.9155 22.5069 24.8784C23.1062 25.1118 23.7133 25.3726 24.3303 25.6225C25.0187 25.9009 25.7189 26.1645 26.4338 26.3481L26.4583 26.354L26.4827 26.3579C26.4896 26.3579 26.5327 26.3696 26.6071 26.3862C26.6806 26.4028 26.7853 26.4223 26.9107 26.4223C27.0429 26.4223 27.1937 26.3989 27.3416 26.3442C27.4904 26.2905 27.6363 26.2094 27.7842 26.102C27.9282 25.9975 28.0476 25.8872 28.1436 25.7661C28.2151 25.6763 28.2729 25.5796 28.315 25.4849C28.3777 25.3423 28.4021 25.2056 28.4119 25.1089C28.4217 25.0122 28.4237 24.9546 28.4256 24.9487L28.4286 24.9312L28.4305 24.9126C28.4491 24.6987 28.456 24.4614 28.456 24.2046C28.456 23.521 28.4051 22.7037 28.3512 21.9957C28.3248 21.6422 28.2964 21.317 28.2738 21.0533C28.2631 20.9263 28.2533 20.8131 28.2445 20.7183C28.9868 19.8522 29.7712 18.9322 30.4733 18.0368C30.6613 17.8278 30.817 17.6051 30.9287 17.3649C31.0452 17.1139 31.1128 16.8424 31.1128 16.5641C31.1128 16.4147 31.0932 16.2643 31.054 16.1178C31.009 15.9499 30.9424 15.7995 30.8572 15.6696C30.7935 15.5729 30.7201 15.4899 30.6447 15.4216C30.5311 15.319 30.4165 15.2517 30.3254 15.2058C30.2344 15.1599 30.1658 15.1325 30.1443 15.1208L30.1218 15.1101L30.0992 15.1013C29.3824 14.8181 28.6558 14.613 27.938 14.4343C27.2965 14.2751 26.6629 14.1355 26.047 13.9851C25.6993 13.4451 25.3615 12.8767 25.0099 12.3123C24.6162 11.6824 24.2059 11.0584 23.7339 10.4891L23.7182 10.4705L23.7006 10.4529C23.7006 10.4529 23.6683 10.4148 23.6174 10.3553C23.5792 10.3113 23.5263 10.2547 23.4568 10.1961C23.353 10.1092 23.211 10.0242 23.0474 9.97149C22.8839 9.91778 22.7037 9.89336 22.5029 9.89336C22.3247 9.89336 22.1621 9.91289 22.0133 9.95488C21.9017 9.98613 21.7979 10.0301 21.7087 10.0838C21.5736 10.1629 21.4737 10.2605 21.4091 10.3318C21.3444 10.4051 21.3092 10.45 21.3053 10.4519L21.2925 10.4646L21.2808 10.4783C21.0487 10.7469 20.8098 11.0672 20.5708 11.4129C20.2134 11.9304 19.8559 12.5007 19.5484 13.0046C19.3947 13.2566 19.2527 13.4919 19.1313 13.6941C19.0666 13.8015 19.0069 13.8991 18.955 13.9851C18.3253 14.1384 17.6741 14.2849 17.0268 14.448C16.3021 14.6306 15.5843 14.8347 14.9086 15.0993L14.8851 15.1091L14.8626 15.1208C14.8567 15.1247 14.8126 15.1413 14.7402 15.1726C14.6853 15.196 14.6158 15.2292 14.5394 15.278C14.4248 15.3503 14.3014 15.4597 14.2025 15.5974C14.1026 15.736 14.0233 15.8991 13.9616 16.0886C13.899 16.28 13.8666 16.4596 13.8666 16.6325C13.8666 16.7399 13.8804 16.8434 13.9039 16.9372H13.899ZM20.563 16.1999C20.6403 16.1442 20.7069 16.0895 20.7667 16.0339C20.8558 15.9518 20.9282 15.8639 20.9782 15.7936C21.0291 15.7223 21.0565 15.6765 21.082 15.6413L21.0898 15.6315C21.5099 15.0134 21.9105 14.3376 22.2542 13.7761C22.3374 13.6413 22.4197 13.5105 22.5 13.3835C22.9701 14.1179 23.4127 14.8698 23.9082 15.6237L23.92 15.6413C23.9366 15.6647 23.9542 15.6921 23.9797 15.7302C24.0169 15.7858 24.0737 15.8679 24.1511 15.9509C24.2284 16.0348 24.3234 16.1169 24.439 16.1999C24.5154 16.2555 24.5868 16.3014 24.6583 16.3415C24.7631 16.401 24.8689 16.4421 24.9511 16.4665C25.0344 16.4919 25.0843 16.5036 25.1255 16.5163L25.1372 16.5202L25.149 16.5231C26.0244 16.7565 26.8745 16.9547 27.7157 17.1706C27.1653 17.8405 26.5836 18.4899 26.0186 19.194L26.0068 19.2096C25.9902 19.232 25.9706 19.2565 25.9422 19.2916C25.901 19.3424 25.8403 19.4215 25.7845 19.5201C25.7287 19.6197 25.6797 19.734 25.6357 19.8697C25.6004 19.9781 25.5749 20.0758 25.5593 20.1695C25.5436 20.2623 25.5377 20.3512 25.5387 20.4225C25.5387 20.4693 25.5407 20.5094 25.5417 20.5416C25.5426 20.5738 25.5446 20.5992 25.5446 20.6226V20.6441C25.5877 21.5465 25.6611 22.4126 25.7169 23.2759C25.3546 23.1294 24.9835 22.9722 24.6104 22.8199C23.9493 22.5503 23.2834 22.2945 22.6234 22.1529L22.5637 22.1402H22.502C22.406 22.1402 22.3188 22.1451 22.2376 22.1548C22.1161 22.1695 22.0055 22.1998 21.9252 22.2281C21.885 22.2418 21.8527 22.2544 21.8263 22.2652C21.7998 22.275 21.7792 22.2828 21.7597 22.2896L21.7499 22.2925L21.7401 22.2964C20.892 22.6158 20.087 22.9527 19.2801 23.272C19.334 22.4048 19.4172 21.5406 19.4593 20.6432V20.6226C19.4593 20.5992 19.4603 20.5738 19.4623 20.5416C19.4632 20.5094 19.4652 20.4703 19.4652 20.4225C19.4652 20.3512 19.4603 20.2623 19.4446 20.1695C19.429 20.0758 19.4035 19.9771 19.3683 19.8697C19.3389 19.7789 19.3075 19.6988 19.2733 19.6256C19.2223 19.5152 19.1606 19.4205 19.1087 19.3522C19.0833 19.318 19.0608 19.2906 19.0422 19.2682C19.0235 19.2457 19.0098 19.2281 18.9971 19.2106L18.9912 19.2027L18.9854 19.1959C18.6122 18.7272 18.2098 18.2506 17.821 17.7887C17.6408 17.5749 17.4645 17.3659 17.2951 17.1618C18.1373 16.943 18.9873 16.7555 19.855 16.5231L19.8657 16.5202L19.8765 16.5163C19.9039 16.5075 19.9343 16.4997 19.9774 16.488C20.041 16.4704 20.136 16.4421 20.2388 16.3942C20.3417 16.3464 20.4474 16.2829 20.562 16.1999H20.563Z" fill="#FF6900"/>
</svg>
