<svg width="52" height="40" viewBox="0 0 52 40" fill="none" xmlns="http://www.w3.org/2000/svg">
<path d="M28.7496 0H52V20.1824C52 23.5416 51.4072 26.3225 50.2078 28.5459C49.0153 30.7623 47.4685 32.6071 45.5605 34.0802C43.6593 35.5464 41.54 36.7303 39.2027 37.6183C36.8654 38.5063 34.5554 39.3048 32.2726 40L28.845 33.7085C30.5758 33.0477 32.0545 32.3731 33.2811 31.6916C34.5077 31.0102 35.5162 30.2667 36.293 29.4614C37.0698 28.656 37.6423 27.7405 38.0034 26.708C38.3646 25.6754 38.5486 24.4639 38.5486 23.0666H28.7428V0H28.7496ZM0 0H23.1959V20.1824C23.1959 23.5416 22.6031 26.3225 21.4037 28.5459C20.2112 30.7623 18.6712 32.6071 16.7836 34.0802C14.8961 35.5464 12.7905 36.7303 10.4532 37.6183C8.11584 38.5063 5.80579 39.3048 3.523 40L0.0545145 33.7085C1.78535 33.0477 3.26405 32.3731 4.49063 31.6916C5.71721 31.0102 6.72572 30.2667 7.50256 29.4614C8.27939 28.656 8.85179 27.7405 9.21295 26.708C9.57411 25.6754 9.75809 24.4639 9.75809 23.0666H0V0Z" fill="#FF6900" fill-opacity="0.5"/>
</svg>
