<svg width="18" height="12" viewBox="0 0 18 12" fill="none" xmlns="http://www.w3.org/2000/svg">
<path d="M17.9324 5.65714C17.8423 5.57143 17.8423 5.48571 17.7522 5.4L12.3454 0.257143C11.985 -0.0857143 11.4443 -0.0857143 11.0839 0.257143C10.7234 0.6 10.7234 1.11429 11.0839 1.45714L14.9587 5.14286H0.901126C0.360451 5.14286 0 5.48571 0 6C0 6.51429 0.360451 6.85714 0.901126 6.85714H14.9587L11.0839 10.5429C10.7234 10.8857 10.7234 11.4 11.0839 11.7429C11.2641 11.9143 11.5344 12 11.7146 12C11.8949 12 12.1652 11.9143 12.3454 11.7429L17.7522 6.6C17.8423 6.51429 17.9324 6.42857 17.9324 6.34286C18.0225 6.08571 18.0225 5.91429 17.9324 5.65714Z" fill="white"/>
</svg>
