<svg width="50" height="50" viewBox="0 0 50 50" fill="none" xmlns="http://www.w3.org/2000/svg">
<path d="M49.9429 3.73251C49.8345 1.74614 48.2553 0.167007 46.269 0.0586069C42.2611 -0.160147 34.4191 0.052747 26.92 3.93173C23.0966 5.90931 19.0546 9.26191 15.8279 13.1301C15.7879 13.178 15.7498 13.2259 15.7098 13.2737L8.38737 13.8391C7.18227 13.9319 6.10901 14.5638 5.442 15.5726L0.44581 23.1274C-0.0600594 23.8921 -0.140139 24.8491 0.230962 25.687C0.602063 26.5249 1.3638 27.1099 2.27006 27.2496L8.43913 28.2047C8.41764 28.3248 8.39518 28.4439 8.37565 28.564C8.17057 29.7926 8.5778 31.0553 9.46454 31.943L18.0575 40.5359C18.7928 41.2713 19.787 41.6776 20.8056 41.6776C21.0155 41.6776 21.2265 41.66 21.4364 41.6248C21.5566 41.6053 21.6767 41.5828 21.7958 41.5614L22.7509 47.7304C22.8916 48.6357 23.4756 49.3984 24.3135 49.7695C24.6621 49.9238 25.0312 50 25.3984 50C25.9141 50 26.4268 49.8496 26.8731 49.5547L34.4289 44.5595C35.4377 43.8925 36.0686 42.8192 36.1613 41.6141L36.7268 34.2917C36.7746 34.2526 36.8225 34.2136 36.8703 34.1735C40.7386 30.9469 44.0912 26.9039 46.0688 23.0815C49.9477 15.5823 50.1606 7.73942 49.9419 3.73251H49.9429ZM32.8146 42.1161L25.5869 46.8945L24.6553 40.8817C27.71 39.9832 30.7316 38.5447 33.6105 36.6179L33.2423 41.3885C33.2199 41.6864 33.0636 41.951 32.8146 42.1161ZM11.5359 29.8727C11.3161 29.6529 11.2155 29.3453 11.2654 29.0484C11.5212 27.5211 11.9177 26.0669 12.4089 24.6968L25.3027 37.5906C23.6572 38.1804 22.1835 38.532 20.954 38.7371C20.6571 38.7869 20.3485 38.6853 20.1298 38.4666L11.5359 29.8727ZM8.61296 16.7591L13.3826 16.391C11.4558 19.2699 10.0173 22.2915 9.11883 25.3462L3.10699 24.4145L7.88541 17.1869C8.05045 16.9378 8.3151 16.7816 8.61296 16.7591ZM34.9963 31.9245C32.63 33.8981 30.3321 35.3259 28.2149 36.3591L13.6424 21.7866C14.9959 19.0228 16.6473 16.721 18.078 15.0062C21.0634 11.427 24.7773 8.33806 28.2667 6.53334C35.1486 2.9737 42.4007 2.78132 46.1098 2.98347C46.601 3.00984 46.9916 3.40047 47.018 3.89169C47.2201 7.60172 47.0278 14.8528 43.4681 21.7348C41.6634 25.2241 38.5755 28.9371 34.9963 31.9235V31.9245Z" fill="black"/>
<path d="M34.2511 23.0708C36.1262 23.0708 38.0022 22.3569 39.43 20.9291C40.8138 19.5463 41.5755 17.7064 41.5755 15.7503C41.5755 13.7942 40.8138 11.9543 39.43 10.5715C36.5744 7.71598 31.9279 7.71598 29.0723 10.5715C27.6885 11.9553 26.9268 13.7942 26.9268 15.7503C26.9268 17.7064 27.6885 19.5463 29.0723 20.9291C30.5001 22.3569 32.3751 23.0708 34.2511 23.0708ZM31.1437 12.6428C32.0001 11.7864 33.1261 11.3577 34.2511 11.3577C35.3762 11.3577 36.5022 11.7864 37.3586 12.6428C38.1887 13.4729 38.6458 14.5765 38.6458 15.7503C38.6458 16.9242 38.1887 18.0277 37.3586 18.8578C35.6457 20.5707 32.8576 20.5707 31.1437 18.8578C30.3136 18.0277 29.8565 16.9242 29.8565 15.7503C29.8565 14.5765 30.3136 13.4729 31.1437 12.6428Z" fill="#FF6900"/>
<path d="M1.49466 41.2059C1.86967 41.2059 2.24468 41.0633 2.53082 40.7772L7.31313 35.9948C7.88541 35.4226 7.88541 34.4948 7.31313 33.9235C6.74086 33.3512 5.81408 33.3512 5.24181 33.9235L0.459487 38.7058C-0.112789 39.2781 -0.112789 40.2059 0.459487 40.7772C0.745626 41.0633 1.12063 41.2059 1.49564 41.2059H1.49466Z" fill="#FF6900"/>
<path d="M11.696 38.3054C11.1237 37.7332 10.197 37.7332 9.6247 38.3054L0.429208 47.5C-0.143069 48.0722 -0.143069 49 0.429208 49.5713C0.715346 49.8574 1.09035 50 1.46536 50C1.84037 50 2.21537 49.8574 2.50151 49.5713L11.696 40.3768C12.2683 39.8045 12.2683 38.8767 11.696 38.3054Z" fill="#FF6900"/>
<path d="M14.0076 42.6883L9.22527 47.4707C8.65299 48.0429 8.65299 48.9707 9.22527 49.542C9.51141 49.8281 9.88642 49.9707 10.2614 49.9707C10.6364 49.9707 11.0114 49.8281 11.2976 49.542L16.0799 44.7597C16.6522 44.1874 16.6522 43.2596 16.0799 42.6883C15.5076 42.1161 14.5808 42.1161 14.0086 42.6883H14.0076Z" fill="#FF6900"/>
</svg>
