<svg width="25" height="30" viewBox="0 0 25 30" fill="none" xmlns="http://www.w3.org/2000/svg">
<path d="M24.9679 7.72443C24.9526 6.91447 24.9381 6.14932 24.9381 5.40909C24.9381 4.82917 24.4719 4.35901 23.8967 4.35901C19.4429 4.35901 16.052 3.0684 13.2254 0.297328C12.8211 -0.0991795 12.1777 -0.0990395 11.7735 0.297328C8.94722 3.0684 5.55682 4.35901 1.10336 4.35901C0.528225 4.35901 0.0619532 4.82917 0.0619532 5.40909C0.0619532 6.14946 0.0475124 6.91489 0.0320996 7.72499C-0.110642 15.2626 -0.306148 25.5856 12.1584 29.942C12.2689 29.9807 12.3841 30 12.4994 30C12.6146 30 12.73 29.9807 12.8404 29.942C25.3059 25.5855 25.1107 15.2621 24.9679 7.72443ZM12.4995 27.8356C1.80957 23.9199 1.9712 15.3422 2.11463 7.76503C2.12324 7.31028 2.13157 6.86953 2.1374 6.43746C6.30858 6.25993 9.64413 4.98542 12.4995 2.47728C15.3552 4.98542 18.6913 6.26007 22.8627 6.43746C22.8686 6.86939 22.8769 7.30986 22.8855 7.76434C23.0288 15.3418 23.1903 23.9198 12.4995 27.8356Z" fill="black"/>
<path d="M16.0857 11.3522L11.0593 16.4201L8.91443 14.2574C8.50773 13.8474 7.84831 13.8474 7.44175 14.2574C7.03504 14.6676 7.03504 15.3324 7.44175 15.7425L10.323 18.6477C10.5262 18.8526 10.7928 18.9551 11.0593 18.9551C11.3258 18.9551 11.5924 18.8526 11.7957 18.6477L17.5582 12.8373C17.9651 12.4272 17.9651 11.7623 17.5584 11.3523C17.1518 10.9422 16.4924 10.9421 16.0857 11.3522Z" fill="#FF6900"/>
</svg>
