<svg width="50" height="50" viewBox="0 0 50 50" fill="none" xmlns="http://www.w3.org/2000/svg">
<path d="M8.43441 6.20984H8.43538V6.20886L8.43441 6.20984Z" fill="black"/>
<path d="M6.20886 8.43538H6.20984V8.43441L6.20886 8.43538Z" fill="black"/>
<path d="M6.20984 41.5646V41.5636H6.20886L6.20984 41.5646Z" fill="black"/>
<path d="M43.7902 41.5636H43.7892V41.5646L43.7902 41.5636Z" fill="black"/>
<path d="M49.6426 21.6607C49.2979 20.8453 48.7246 20.1559 48.002 19.6676C47.6407 19.4234 47.2413 19.2291 46.8145 19.0963C46.3878 18.9635 45.9337 18.8922 45.4669 18.8922H44.339C43.9825 17.7633 43.5294 16.6784 42.9904 15.6442C43.2277 15.4069 43.5021 15.1325 43.7902 14.8444C44.6417 13.9939 45.1183 12.8406 45.1183 11.6384C45.1183 10.4373 44.6417 9.284 43.7902 8.43343C43.0744 7.71665 42.2804 6.92369 41.5646 6.20789C40.7141 5.35634 39.5607 4.87979 38.3596 4.87979C37.1575 4.87979 36.0042 5.35634 35.1536 6.20789C34.8665 6.49499 34.5911 6.77038 34.3538 7.00768C33.3206 6.46862 32.2347 6.01648 31.1068 5.65907V4.53116C31.1068 3.9091 30.9799 3.30951 30.7504 2.76655C30.4057 1.95113 29.8324 1.26169 29.1098 0.773422C28.7485 0.529287 28.3491 0.334954 27.9223 0.202144C27.4946 0.0712877 27.0405 0 26.5737 0H23.4253C22.8033 0 22.2037 0.126951 21.6607 0.356438C20.8453 0.701158 20.1559 1.27439 19.6676 1.99703C19.4234 2.35835 19.2291 2.75776 19.0963 3.18451C18.9635 3.61126 18.8922 4.06535 18.8922 4.53214V5.66005C17.7643 6.01648 16.6784 6.4696 15.6442 7.00865C15.4069 6.77135 15.1325 6.49694 14.8454 6.20984C13.9948 5.35829 12.8415 4.88174 11.6394 4.88174C10.4383 4.88174 9.28497 5.35829 8.43441 6.20984C7.7186 6.92565 6.92565 7.7186 6.20886 8.43538C5.35732 9.28595 4.88076 10.4392 4.88076 11.6404C4.88076 12.8425 5.35829 13.9958 6.20886 14.8464C6.49597 15.1335 6.77135 15.4089 7.00768 15.6452C6.46862 16.6784 6.01648 17.7643 5.65907 18.8932H4.53116C3.9091 18.8932 3.30951 19.0201 2.76655 19.2496C1.95113 19.5943 1.26169 20.1676 0.773422 20.8902C0.529287 21.2515 0.334954 21.6509 0.202144 22.0777C0.0712877 22.5044 0 22.9585 0 23.4253V26.5737C0 27.1958 0.126951 27.7954 0.356438 28.3383C0.701158 29.1537 1.27439 29.8432 1.99703 30.3314C2.35835 30.5756 2.75776 30.7699 3.18451 30.9027C3.61126 31.0355 4.06535 31.1068 4.53214 31.1068H5.66005C6.01648 32.2347 6.4696 33.3206 7.00865 34.3538C6.77135 34.5911 6.49597 34.8665 6.20984 35.1526C5.3583 36.0032 4.88174 37.1565 4.88174 38.3586C4.88174 39.5598 5.3583 40.7131 6.20984 41.5636C6.92565 42.2794 7.7186 43.0724 8.43538 43.7882C9.28595 44.6398 10.4392 45.1163 11.6404 45.1173C12.8425 45.1173 13.9958 44.6407 14.8464 43.7892C15.1335 43.5021 15.4089 43.2267 15.6452 42.9904C16.6784 43.5294 17.7643 43.9816 18.8932 44.339V45.4669C18.8932 46.0889 19.0201 46.6885 19.2496 47.2315C19.5943 48.0469 20.1676 48.7364 20.8902 49.2246C21.2515 49.4688 21.6509 49.6631 22.0777 49.7959C22.5044 49.9287 22.9585 50 23.4253 50H26.5737C27.1958 50 27.7954 49.873 28.3383 49.6436C29.1537 49.2988 29.8432 48.7256 30.3314 48.003C30.5756 47.6416 30.7699 47.2422 30.9027 46.8155C31.0355 46.3887 31.1068 45.9347 31.1068 45.4679V44.34C32.2357 43.9835 33.3206 43.5304 34.3538 42.9913C34.5911 43.2286 34.8655 43.5031 35.1526 43.7902C36.0032 44.6417 37.1565 45.1183 38.3586 45.1183C39.5598 45.1183 40.7131 44.6417 41.5636 43.7902C42.2794 43.0744 43.0724 42.2814 43.7892 41.5646C44.6407 40.7141 45.1173 39.5607 45.1173 38.3596C45.1173 37.1575 44.6407 36.0042 43.7892 35.1536C43.5021 34.8665 43.2267 34.5921 42.9894 34.3548C43.5284 33.3216 43.9806 32.2357 44.338 31.1068H45.4659C46.088 31.1068 46.6876 30.9799 47.2305 30.7504C48.0459 30.4057 48.7354 29.8324 49.2236 29.1098C49.4678 28.7485 49.6621 28.3491 49.7949 27.9223C49.9277 27.4956 49.999 27.0415 49.999 26.5747V23.4263C49.999 22.8042 49.8721 22.2046 49.6426 21.6617V21.6607ZM47.2315 26.5747C47.2315 26.8217 47.1817 27.0512 47.0938 27.2612C46.961 27.5766 46.7354 27.8481 46.4532 28.0395C46.3116 28.1352 46.1573 28.2094 45.9923 28.2612C45.8272 28.3119 45.6524 28.3403 45.4669 28.3403H43.297C42.6662 28.3403 42.1144 28.767 41.9572 29.3783C41.5431 30.9828 40.9074 32.4994 40.0832 33.8919C39.7619 34.4349 39.8498 35.1282 40.2961 35.5745C40.2961 35.5745 41.0207 36.2991 41.8332 37.1116C42.1642 37.4426 42.3498 37.8909 42.3498 38.3606C42.3498 38.8283 42.1642 39.2776 41.8332 39.6076C41.1174 40.3244 40.3234 41.1183 39.6066 41.8341C39.2766 42.1652 38.8274 42.3517 38.3596 42.3517C37.8909 42.3517 37.4417 42.1662 37.1116 41.8351C36.7053 41.4279 36.3206 41.0441 36.0384 40.7609C35.8968 40.6193 35.7815 40.5041 35.7005 40.423C35.6194 40.342 35.5745 40.2971 35.5745 40.2971C35.1282 39.8508 34.4349 39.7629 33.8919 40.0842C32.4994 40.9074 30.9838 41.5431 29.3783 41.9572C28.767 42.1144 28.3403 42.6662 28.3403 43.297V45.4669C28.3403 45.714 28.2905 45.9434 28.2026 46.1534C28.0698 46.4688 27.8442 46.7403 27.561 46.9317C27.4194 47.0274 27.2651 47.1016 27.1001 47.1534C26.935 47.2042 26.7602 47.2325 26.5747 47.2325H23.4263C23.1792 47.2325 22.9497 47.1827 22.7398 47.0948C22.4244 46.962 22.1529 46.7364 21.9615 46.4542C21.8658 46.3126 21.7916 46.1583 21.7398 45.9932C21.689 45.8282 21.6607 45.6534 21.6607 45.4679V43.298C21.6607 42.6671 21.234 42.1154 20.6226 41.9582C19.0182 41.5441 17.5016 40.9084 16.1091 40.0852C15.5661 39.7639 14.8728 39.8518 14.4265 40.298C14.4265 40.298 14.3816 40.343 14.3005 40.424C14.0583 40.6662 13.4988 41.2258 12.8894 41.8351C12.5593 42.1662 12.1101 42.3527 11.6414 42.3527C11.1736 42.3527 10.7244 42.1671 10.3943 41.8361C9.67852 41.1193 8.88459 40.3254 8.16781 39.6096C7.83676 39.2785 7.65122 38.8293 7.65122 38.3616C7.65122 37.8928 7.83676 37.4436 8.16781 37.1135C8.98127 36.3001 9.70489 35.5755 9.70489 35.5755C10.1512 35.1292 10.2391 34.4359 9.91778 33.8929C9.09455 32.5003 8.45882 30.9847 8.04379 29.3793C7.88657 28.768 7.33482 28.3412 6.70397 28.3412H4.53409C4.28703 28.3412 4.05754 28.2914 3.84758 28.2036C3.53216 28.0707 3.26068 27.8452 3.06928 27.5629C2.97357 27.4213 2.89936 27.267 2.8476 27.102C2.79682 26.937 2.7685 26.7622 2.7685 26.5766V23.4283C2.7685 23.1812 2.8183 22.9517 2.90619 22.7417C3.039 22.4263 3.26458 22.1548 3.54681 21.9634C3.6884 21.8677 3.8427 21.7935 4.00773 21.7418C4.17277 21.691 4.34757 21.6627 4.53311 21.6627H6.70299C7.33384 21.6627 7.88559 21.2359 8.04281 20.6246C8.45687 19.0192 9.0926 17.5036 9.9168 16.111C10.2381 15.5681 10.1502 14.8747 9.70391 14.4284C9.70391 14.4284 9.65899 14.3835 9.57794 14.3025C9.33576 14.0603 8.7762 13.5007 8.16683 12.8913C7.83578 12.5603 7.65024 12.1111 7.65024 11.6433C7.65024 11.1756 7.83578 10.7264 8.16683 10.3963C8.88362 9.6795 9.67657 8.88557 10.3934 8.16976C10.7234 7.83871 11.1726 7.65219 11.6404 7.65219C12.1091 7.65219 12.5583 7.83774 12.8884 8.16879C13.2947 8.576 13.6794 8.96076 13.9616 9.24298C14.1032 9.38458 14.2185 9.49981 14.2995 9.58087C14.3806 9.66192 14.4255 9.70684 14.4255 9.70684C14.8718 10.1531 15.5651 10.241 16.1081 9.91973C17.5006 9.0965 19.0162 8.46077 20.6217 8.04574C21.233 7.88852 21.6597 7.33677 21.6597 6.70592V4.53604C21.6597 4.28898 21.7095 4.05949 21.7974 3.84953C21.9302 3.53411 22.1558 3.26263 22.438 3.07123C22.5796 2.97553 22.7339 2.90131 22.899 2.84955C23.064 2.79877 23.2388 2.77045 23.4243 2.77045H26.5727C26.8198 2.77045 27.0493 2.82026 27.2592 2.90815C27.5747 3.04096 27.8461 3.26654 28.0375 3.54876C28.1332 3.69036 28.2075 3.84465 28.2592 4.00969C28.31 4.17472 28.3383 4.34952 28.3383 4.53507V6.70495C28.3383 7.33579 28.7651 7.88754 29.3764 8.04476C30.9808 8.45882 32.4974 9.09455 33.89 9.91875C34.4329 10.24 35.1272 10.1521 35.5725 9.70586C35.5725 9.70586 35.6175 9.66094 35.6985 9.57989C35.9407 9.33771 36.5003 8.77815 37.1096 8.16879C37.4397 7.83774 37.8889 7.65122 38.3577 7.65122C38.8254 7.65122 39.2746 7.83676 39.6047 8.16781C40.3215 8.88459 41.1144 9.67852 41.8312 10.3943C42.1623 10.7254 42.3478 11.1746 42.3478 11.6424C42.3478 12.1111 42.1623 12.5603 41.8312 12.8904C41.0178 13.7038 40.2941 14.4284 40.2941 14.4284C39.8479 14.8747 39.76 15.5681 40.0812 16.111C40.9045 17.5036 41.5402 19.0192 41.9552 20.6246C42.1125 21.2359 42.6642 21.6627 43.2951 21.6627H45.4649C45.712 21.6627 45.9415 21.7125 46.1514 21.8004C46.4669 21.9332 46.7383 22.1587 46.9297 22.441C47.0254 22.5826 47.0997 22.7369 47.1514 22.9019C47.2022 23.0669 47.2305 23.2417 47.2305 23.4273V26.5757L47.2315 26.5747Z" fill="black"/>
<path d="M43.7902 14.8454H43.7892V14.8464L43.7902 14.8454Z" fill="black"/>
<path d="M41.5636 6.20886V6.20984H41.5646L41.5636 6.20886Z" fill="black"/>
<path d="M43.7892 8.43441V8.43538H43.7902L43.7892 8.43441Z" fill="black"/>
<path d="M31.0541 16.0212C29.3276 14.8532 27.2368 14.1696 24.9995 14.1696C23.5083 14.1696 22.0806 14.4734 20.7847 15.0222C18.8395 15.8454 17.1891 17.2174 16.0212 18.9449C14.8532 20.6715 14.1696 22.7623 14.1696 24.9995C14.1696 26.4907 14.4734 27.9184 15.0222 29.2143C15.8454 31.1595 17.2174 32.8099 18.9449 33.9779C20.6715 35.1458 22.7623 35.8304 24.9995 35.8294C26.4907 35.8294 27.9184 35.5257 29.2143 34.9769C31.1595 34.1536 32.8099 32.7816 33.9779 31.0541C35.1458 29.3276 35.8304 27.2368 35.8294 24.9995C35.8294 23.5083 35.5257 22.0806 34.9769 20.7847C34.1536 18.8395 32.7816 17.1891 31.0541 16.0212ZM32.4281 28.1362C31.8168 29.5815 30.7924 30.8158 29.5043 31.6859C28.8608 32.1214 28.1518 32.4652 27.396 32.7005C26.6401 32.9359 25.8364 33.0628 24.9995 33.0628C23.8833 33.0628 22.8267 32.8372 21.8638 32.4291C20.4185 31.8177 19.1842 30.7924 18.3141 29.5053C17.8786 28.8617 17.5348 28.1528 17.2995 27.3969C17.0641 26.6411 16.9372 25.8374 16.9372 25.0005C16.9372 23.8843 17.1628 22.8277 17.5709 21.8648C18.1823 20.4195 19.2067 19.1852 20.4947 18.3151C21.1383 17.8795 21.8472 17.5358 22.6031 17.3004C23.3589 17.0651 24.1626 16.9381 24.9995 16.9381C26.1157 16.9381 27.1723 17.1637 28.1352 17.5719C29.5805 18.1832 30.8148 19.2076 31.6849 20.4957C32.1205 21.1392 32.4642 21.8482 32.6996 22.6041C32.9349 23.3599 33.0619 24.1636 33.0619 25.0005C33.0619 26.1167 32.8363 27.1733 32.4281 28.1362Z" fill="#FF6900"/>
</svg>
