<svg width="50" height="48" viewBox="0 0 50 48" fill="none" xmlns="http://www.w3.org/2000/svg">
<path d="M40.4336 13.5405L32.1787 12.3326L28.4873 4.79753C27.0615 1.8868 22.9384 1.88779 21.5126 4.79753L17.8212 12.3326L9.56628 13.5405C6.37779 14.0068 5.10434 17.9573 7.411 20.2217L13.3847 26.0864L11.9745 34.3671C11.4296 37.5661 14.7655 40.0066 17.6171 38.4966L25.0009 34.5865L32.3848 38.4966C35.2324 40.0046 38.5723 37.5661 38.0274 34.3671L36.6172 26.0855L42.5909 20.2207C44.8975 17.9553 43.6231 14.0058 40.4356 13.5395L40.4336 13.5405ZM40.2617 17.8176L33.6611 24.2981C33.2686 24.6837 33.0889 25.2395 33.1816 25.7845L34.7402 34.9357C34.8184 35.3951 34.3438 35.7423 33.9346 35.5259L25.7753 31.2055C25.29 30.9488 24.7099 30.9488 24.2246 31.2055L16.0653 35.5259C15.6552 35.7423 15.1815 35.3951 15.2597 34.9357L16.8183 25.7845C16.911 25.2395 16.7314 24.6847 16.3388 24.2981L9.73816 17.8176C9.4071 17.492 9.58776 16.9303 10.0458 16.8634L19.1679 15.5286C19.7109 15.4489 20.1796 15.1056 20.4228 14.6098L24.5019 6.28388C24.707 5.86581 25.2929 5.86581 25.498 6.28388L29.5771 14.6098C29.8203 15.1056 30.289 15.4489 30.832 15.5286L39.9541 16.8634C40.4121 16.9303 40.5938 17.493 40.2617 17.8176Z" fill="black"/>
<path d="M13.1571 3.45578L11.1639 0.692608C10.6229 -0.0569602 9.58093 -0.224187 8.83581 0.321759C8.09166 0.86672 7.92565 1.91631 8.46666 2.66686L10.4598 5.43004C11.0009 6.18059 12.0438 6.34585 12.788 5.80089C13.5321 5.25592 13.6981 4.20633 13.1571 3.45578Z" fill="#FF6900"/>
<path d="M6.54283 28.2201C6.25865 27.3387 5.31821 26.8557 4.44321 27.1419L1.15218 28.2191C0.277173 28.5053 -0.202321 29.4526 0.0818597 30.335C0.367017 31.2183 1.30843 31.6994 2.18246 31.4131L5.47349 30.336C6.34849 30.0497 6.82701 29.1024 6.54283 28.2201Z" fill="#FF6900"/>
<path d="M41.1641 0.320774C40.42 -0.224187 39.377 -0.0579445 38.836 0.691624L36.8428 3.4548C36.3018 4.20436 36.4668 5.25494 37.211 5.7999C37.9561 6.34486 38.9981 6.17862 39.5391 5.42905L41.5323 2.66588C42.0733 1.91631 41.9082 0.865736 41.1641 0.320774Z" fill="#FF6900"/>
<path d="M48.8477 28.2201L45.5567 27.1429C44.6817 26.8557 43.7413 27.3387 43.4561 28.221C43.1709 29.1034 43.6504 30.0497 44.5264 30.3369L47.8175 31.4141C48.6915 31.7003 49.6329 31.2193 49.9181 30.336C50.2022 29.4546 49.7237 28.5073 48.8477 28.2201Z" fill="#FF6900"/>
<path d="M25 41.2342C24.0791 41.2342 23.333 41.9857 23.333 42.9134V46.3209C23.333 47.2475 24.0791 48 25 48C25.9209 48 26.667 47.2485 26.667 46.3209V42.9134C26.667 41.9857 25.9209 41.2342 25 41.2342Z" fill="#FF6900"/>
</svg>
