<svg width="50" height="50" viewBox="0 0 50 50" fill="none" xmlns="http://www.w3.org/2000/svg">
<path d="M49.6664 24.0673C45.122 18.5306 35.5007 12.0693 25.0001 12.0693C14.4617 12.0693 4.84005 18.5745 0.333677 24.0673C-0.111226 24.6095 -0.111226 25.3905 0.333677 25.9328C4.98583 31.6034 14.6297 37.9308 25.0001 37.9308C35.739 37.9308 45.3193 31.2291 49.6664 25.9329C50.1113 25.3905 50.1113 24.6095 49.6664 24.0673ZM34.9896 25C34.9896 30.5083 30.5083 34.9896 25 34.9896C19.4915 34.9896 15.0103 30.508 15.0103 25C15.0103 19.4918 19.4916 15.0104 25 15.0104C30.5088 15.0105 34.9896 19.4924 34.9896 25ZM3.45711 25.0004C5.1123 23.2801 9.10329 19.5675 14.7057 17.1846C11.1899 21.8044 11.1885 28.1918 14.7041 32.8133C10.4444 31.0079 6.48731 28.1555 3.45711 25.0004ZM35.2944 32.8154C38.8103 28.1955 38.8115 21.8083 35.296 17.1868C39.5555 18.9922 43.5127 21.8446 46.543 24.9995C44.8878 26.72 40.8968 30.4325 35.2944 32.8154Z" fill="black"/>
<path d="M20.0001 25C20.0001 27.7571 22.243 30 25.0001 30C27.757 30 30.0001 27.7571 30.0001 25C30.0001 22.2429 27.757 20 25.0001 20C22.243 20 20.0001 22.2429 20.0001 25ZM27.0589 25C27.0589 26.1353 26.1353 27.0588 25.0001 27.0588C23.8648 27.0588 22.9412 26.1353 22.9412 25C22.9412 23.8647 23.8648 22.9412 25.0001 22.9412C26.1353 22.9412 27.0589 23.8647 27.0589 25Z" fill="#FF6900"/>
<path d="M25.0001 6.37255C25.8122 6.37255 26.4707 5.71412 26.4707 4.90196V1.47059C26.4707 0.658431 25.8122 0 25.0001 0C24.1879 0 23.5295 0.658431 23.5295 1.47059V4.90196C23.5295 5.71412 24.1879 6.37255 25.0001 6.37255Z" fill="#FF6900"/>
<path d="M33.7746 8.33937C34.4797 8.74153 35.378 8.49633 35.7806 7.79045L37.7376 4.35908C38.14 3.65359 37.8944 2.75555 37.1888 2.3531C36.4831 1.95074 35.5853 2.19633 35.1828 2.90202L33.2258 6.33339C32.8234 7.03878 33.0691 7.93692 33.7746 8.33937Z" fill="#FF6900"/>
<path d="M14.2196 7.79043C14.6219 8.49592 15.52 8.74161 16.2255 8.33925C16.931 7.9369 17.1767 7.03876 16.7744 6.33327L14.8173 2.9019C14.415 2.19641 13.5167 1.95072 12.8113 2.35308C12.1058 2.75543 11.8601 3.65357 12.2625 4.35906L14.2196 7.79043Z" fill="#FF6900"/>
<path d="M25.0001 43.6274C24.1879 43.6274 23.5295 44.2859 23.5295 45.098V48.5294C23.5295 49.3416 24.1879 50 25.0001 50C25.8122 50 26.4707 49.3416 26.4707 48.5294V45.098C26.4707 44.2859 25.8122 43.6274 25.0001 43.6274Z" fill="#FF6900"/>
<path d="M16.2255 41.6607C15.5201 41.2584 14.622 41.504 14.2196 42.2095L12.2625 45.6408C11.8601 46.3463 12.1058 47.2445 12.8113 47.6468C13.5169 48.0492 14.415 47.8034 14.8173 47.098L16.7744 43.6666C17.1768 42.9611 16.931 42.063 16.2255 41.6607Z" fill="#FF6900"/>
<path d="M35.7806 42.2095C35.3782 41.5039 34.4799 41.2584 33.7746 41.6606C33.0691 42.063 32.8234 42.9611 33.2258 43.6666L35.1828 47.098C35.5851 47.8034 36.4831 48.0492 37.1888 47.6469C37.8943 47.2445 38.14 46.3464 37.7376 45.6409L35.7806 42.2095Z" fill="#FF6900"/>
</svg>
